<?xml version="1.0" encoding="UTF-8" standalone="no"?>
<!DOCTYPE svg PUBLIC "-//W3C//DTD SVG 1.1//EN" "http://www.w3.org/Graphics/SVG/1.1/DTD/svg11.dtd">
<svg width="100%" height="100%" viewBox="0 0 400 400" version="1.1" xmlns="http://www.w3.org/2000/svg" xmlns:xlink="http://www.w3.org/1999/xlink" xml:space="preserve" xmlns:serif="http://www.serif.com/" style="fill-rule:evenodd;clip-rule:evenodd;stroke-linejoin:round;stroke-miterlimit:1.41421;">
    <g>
        <path d="M297.02,100.654L314.444,83.23C321.401,76.273 332.699,76.273 339.657,83.23L368.77,112.343C375.727,119.301 375.727,130.599 368.77,137.556L351.346,154.98L297.02,100.654Z" style="fill:rgb(157,165,180);fill-opacity:0.82;"/>
        <path d="M285,112.343L157.343,240L157.343,294L212,294L339,167L285,112.343ZM194,258L194,277L204,277L227,254L198,226L176,248L176,258L194,258ZM287.744,140.256C285.874,138.385 282.837,138.385 280.966,140.256L215.611,205.611C213.74,207.481 213.74,210.519 215.611,212.389C217.481,214.26 220.519,214.26 222.389,212.389L287.744,147.034C289.615,145.163 289.615,142.126 287.744,140.256Z" style="fill:rgb(157,165,180);"/>
        <path d="M250.454,342L89.546,342C60.545,342 37,318.455 37,289.454L37,128.546C37,99.545 60.544,76 89.546,76L250.454,76C255.719,76 260.803,76.776 265.599,78.22C270.875,80.926 272.736,82.162 273,83C273.414,84.313 275.244,87.671 273,90C270.756,92.329 263.14,102.194 261,102C258.86,101.806 250.382,100.355 239.723,101L90.755,101C73.78,101.001 60,114.781 60,131.755L60,288.245C60,305.219 73.781,319 90.755,319L248.245,319C265.219,319 279,305.219 279,288.245L279,266.232C279.022,262.571 279.46,261.486 281,260C282.63,258.428 292.839,247.291 295,247C297.161,246.709 299.524,246.659 301,248C302.476,249.341 302.935,250.976 303,254L303,289.454C303,318.455 279.455,342 250.454,342Z" style="fill:rgb(157,165,180);fill-opacity:0.81;"/>
    </g>
</svg>
