<?xml version="1.0" encoding="UTF-8" standalone="no"?>
<svg
   width="4.44444in"
   height="4.44444in"
   viewBox="0 0 400 400"
   version="1.1"
   id="svg3"
   sodipodi:docname="deleteTable.svg"
   inkscape:version="1.2.2 (732a01da63, 2022-12-09)"
   xmlns:inkscape="http://www.inkscape.org/namespaces/inkscape"
   xmlns:sodipodi="http://sodipodi.sourceforge.net/DTD/sodipodi-0.dtd"
   xmlns="http://www.w3.org/2000/svg"
   xmlns:svg="http://www.w3.org/2000/svg">
  <defs
     id="defs7" />
  <sodipodi:namedview
     id="namedview5"
     pagecolor="#ffffff"
     bordercolor="#000000"
     borderopacity="0.25"
     inkscape:showpageshadow="2"
     inkscape:pageopacity="0.0"
     inkscape:pagecheckerboard="0"
     inkscape:deskcolor="#d1d1d1"
     inkscape:document-units="in"
     showgrid="false"
     inkscape:zoom="0.85101493"
     inkscape:cx="519.37984"
     inkscape:cy="296.70455"
     inkscape:window-width="2560"
     inkscape:window-height="1361"
     inkscape:window-x="-9"
     inkscape:window-y="-9"
     inkscape:window-maximized="1"
     inkscape:current-layer="svg3" />
  <path
     id="Auswahl"
     style="stroke-width:0.99000101;stroke-dasharray:none;fill:#9da5b4;fill-opacity:1;stroke:#9da5b4;stroke-opacity:1"
     d="m 287.99956,28.000517 c -3.99998,0.06 -6.7487,0.19999 -9.76868,3.229984 -4.31,4.29999 -3.22999,11.138821 -3.22999,16.638811 h -33.00113 c -1.92,-0.06 -7.25907,0.101438 -8.78907,0.721436 -2.67369,1.087332 -2.84404,2.235331 -3.99903,3.090824 0.15201,0.212525 0.28614,0.439586 0.41931,0.664673 0.12667,0.21639 0.24905,0.434313 0.36988,0.653687 7.8e-4,7.28e-4 0.001,0.0011 0.002,0.0018 3.48804,3.257668 4.37885,2.937453 8.99781,2.99744 V 196.99971 c 0,2.43 -0.13025,5.74989 0.73975,7.99989 3.69998,9.54998 17.8692,7.00013 26.25918,7.00013 h 86.00106 c 2.94,0 6.30952,0.20995 8.9795,-1.17005 2.38,-1.22998 4.32077,-3.34008 5.28077,-5.83008 1.32,-3.42 0.73975,-24.79005 0.73975,-30.00003 V 55.999203 c 1.63,-0.02 4.29966,0.07124 5.76966,-0.598756 2.78998,-1.269996 3.25003,-4.621234 0.78003,-6.381232 -1.6,-1.149998 -4.62969,-1.009898 -6.54969,-1.019898 h -36.0004 c 0,-5.62999 1.08001,-12.468826 -3.22999,-16.768816 -3.02,-3.029994 -5.77052,-3.169984 -9.77052,-3.229984 z m 5.00062,7.999886 h 17.99928 c 2.99,0 7.16094,-0.310492 9.57094,1.739504 2.83998,2.409994 2.41981,6.879416 2.42981,10.25941 h -39.99943 c 0.01,-3.379994 -0.41019,-7.849416 2.42981,-10.25941 2.07,-1.759996 5.00959,-1.699504 7.56959,-1.739504 z m -63.81782,15.699479 c -0.31602,0.229826 -0.75463,0.429602 -1.29272,0.607911 0.21455,0.352322 0.46774,0.680774 0.75989,0.972291 0.061,0.05535 0.1201,0.113526 0.1831,0.166626 0.2639,0.222399 0.56293,0.398985 0.87158,0.551148 0.0995,0.04896 0.19902,0.09851 0.29664,0.151978 v -0.483399 c -0.0429,-0.07686 -0.0863,-0.153439 -0.13184,-0.228882 -0.1515,-0.257907 -0.32841,-0.499587 -0.50354,-0.741578 -0.11216,-0.156109 -0.22386,-0.312633 -0.3479,-0.459595 -0.0138,-0.01625 -0.009,-0.03052 0.002,-0.03296 0.007,-0.0015 0.0156,0.0012 0.0238,0.01099 0.12455,0.147655 0.23713,0.304583 0.34974,0.461426 0.17569,0.242766 0.35338,0.48468 0.50537,0.743409 0.0349,0.0578 0.0692,0.117049 0.10254,0.175782 v -0.525514 c -0.13036,-0.237312 -0.26241,-0.473126 -0.39917,-0.706787 -0.13316,-0.225068 -0.26737,-0.450839 -0.41932,-0.662843 z m -1.32751,0.617066 c -1.25063,0.407282 -3.19595,0.676461 -6.85548,0.682984 H 55.999203 c -4.339992,0.01 -6.829165,-0.129659 -10.999157,1.470339 -9.58998,3.669992 -17.860068,12.17934 -19.920064,22.52932 v 15.000015 21.000384 202.00033 c -0.05,19.34996 12.930847,30.96979 31.920809,30.99979 H 187.00031 338.99998 c 19.86996,-0.03 31.96955,-12.12958 31.99955,-31.99954 V 218.0001 h -25.99918 c 0,6.53998 1.57947,17.48982 -6.02051,20.3998 -1.86,0.71 -4.94999,0.60059 -6.97999,0.60059 h -45.9998 c -4.85,0 -14.12914,1.08919 -17.71914,-2.31079 -4.36998,-4.13 -3.28125,-13.0696 -3.28125,-18.6896 h -26.99893 c 0,9.56998 2.14899,20.75039 -11.00099,21.00039 h -55.9992 c -3.01,-0.01 -6.29964,0.26964 -8.86964,-1.60034 -3.80998,-2.77 -4.07086,-7.12018 -4.13086,-11.40016 v -23.99966 c 0.01,-3.76 -0.15076,-8.55005 2.08924,-11.77003 2.23998,-3.23 5.36992,-3.17999 8.90992,-3.22999 h 24.00149 37.00016 V 158.9998 h -57.00079 c -3.94,-0.01 -8.5606,0.27962 -11.7206,-2.51038 -3.12998,-2.76 -3.22942,-6.65014 -3.27942,-10.49012 v -25.99918 c 0.05,-10.24998 2.21052,-13.87026 13.0005,-14.00026 h 59.00031 V 54.190119 c -0.10232,-0.0565 -0.20673,-0.109693 -0.31128,-0.161133 -0.31077,-0.153206 -0.61132,-0.330981 -0.87708,-0.55481 -0.0637,-0.05363 -0.12324,-0.112547 -0.18494,-0.168457 -0.29721,-0.296332 -0.55505,-0.630112 -0.7727,-0.988771 z m 19.14553,3.682255 H 359.00061 V 191.9991 c 0,2.99 0.30867,7.16093 -1.74133,9.57093 -3.21,3.78 -18.14993,2.42981 -23.25991,2.42981 h -75.00008 c -2.99,0 -7.15912,0.3105 -9.5691,-1.7395 -2.45,-2.09 -2.38981,-5.3199 -2.42981,-8.2599 V 168.9992 Z m 31.99954,20.000631 c -0.25,0.07 -1.78913,-0.07022 -2.97913,1.519777 -1.05,1.409996 -0.9799,3.800356 -1.0199,5.480352 v 16.999529 75.000078 c 0,2.1 -0.2201,5.82128 1.0199,7.55128 1.76,2.46998 5.1094,2.00995 6.3794,-0.78003 0.72,-1.58 0.60059,-4.98125 0.60059,-6.77125 V 100.99925 84.999477 c 0,-2.059996 0.2201,-5.839307 -1.0199,-7.529305 -1.21,-1.639996 -2.71096,-1.400338 -2.98096,-1.470338 z m 23.99966,0 c -0.25,0.07 -1.78913,-0.07022 -2.97913,1.519777 -1.05,1.409996 -0.9799,3.800356 -1.0199,5.480352 v 16.999529 75.000078 c 0,1.79 -0.12124,5.19125 0.59876,6.77125 1.26998,2.78998 4.62123,3.25001 6.38123,0.78003 1.24,-1.73 1.0199,-5.45128 1.0199,-7.55128 V 100.99925 84.999477 c 0,-2.059996 0.2201,-5.839307 -1.0199,-7.529305 -1.21,-1.639996 -2.71096,-1.400338 -2.98096,-1.470338 z m 23.99966,0 c -0.25,0.07 -1.78913,-0.07022 -2.97913,1.519777 -1.05,1.409996 -0.9799,3.800356 -1.0199,5.480352 v 16.999529 75.000078 c 0,1.79 -0.11941,5.19125 0.60059,6.77125 1.26998,2.78998 4.6194,3.25001 6.3794,0.78003 1.24,-1.73 1.0199,-5.45128 1.0199,-7.55128 V 100.99925 84.999477 c 0,-2.059996 0.2201,-5.839307 -1.0199,-7.529305 -1.21,-1.639996 -2.71096,-1.400338 -2.98096,-1.470338 z M 117.3103,105.94127 c 3.9625,0.0613 7.79995,0.38963 9.55995,1.36963 4.30998,2.42 4.10903,7.39947 4.12903,11.68947 v 25.99917 c -0.01,4.07998 0.39056,9.40089 -3.27942,12.15089 -3.46,2.6 -13.22914,1.84937 -17.71914,1.84937 H 65.000677 c -3.699992,-0.01 -8.659886,0.31962 -11.48988,-2.51038 -2.459994,-2.46 -2.470379,-6.25854 -2.510379,-9.48854 v -27.00076 c 0.01,-6.80998 -0.539856,-11.38997 7.00013,-13.82997 h 48.999072 c 2.26,-0.085 6.34818,-0.29013 10.31068,-0.22888 z m 4.82117,81.11764 c 2.21906,-0.0277 4.59383,0.21091 6.16883,1.68091 2.52,2.36 2.65898,7.04941 2.69898,10.25941 v 26.001 c -0.01,9.36998 -0.29918,13.93026 -10.99916,14.00026 H 62.999332 c -3.349992,-0.01 -6.978539,0.36919 -9.488535,-2.31079 -2.409996,-2.58 -2.470379,-6.37996 -2.510379,-9.68996 v -28.00051 c 0.07,-5.12 0.03048,-9.16976 5.110479,-11.85976 h 22.888207 41.001016 c 0.67,-0.0325 1.39167,-0.0713 2.13135,-0.0806 z m 0,80.00069 c 2.21906,-0.0277 4.59383,0.21091 6.16883,1.68091 2.52,2.36 2.65898,7.04941 2.69898,10.25941 v 25.99917 c -0.01,9.36998 -0.29918,13.93026 -10.99916,14.00026 H 62.999332 c -3.349992,-0.01 -6.978539,0.37104 -9.488535,-2.30896 -2.409996,-2.58 -2.470379,-6.37997 -2.510379,-9.68995 v -28.00052 c 0.07,-5.12 0.03048,-9.16977 5.110479,-11.85975 h 22.888207 41.001016 c 0.67,-0.0325 1.39167,-0.0713 2.13135,-0.0806 z m 107.00146,0 c 2.21905,-0.0277 4.59201,0.21091 6.16699,1.68091 2.52,2.36 2.66081,7.04941 2.70081,10.25941 v 25.99917 c -0.01,9.36998 -0.30101,13.93026 -11.00099,14.00026 h -56.99896 c -3.34998,-0.01 -6.98036,0.37104 -9.49036,-2.30896 -2.41,-2.58 -2.47038,-6.37997 -2.51038,-9.68995 v -28.00052 c 0.07,-5.12 0.0305,-9.16977 5.11048,-11.85975 h 22.89004 40.99918 c 0.67,-0.0325 1.3935,-0.0713 2.13319,-0.0806 z m 106.99962,0 c 2.21905,-0.0277 4.592,0.21091 6.167,1.68091 2.51998,2.36 2.6608,7.04941 2.7008,10.25941 v 25.99917 c -0.01,9.36998 -0.301,13.93026 -11.00098,14.00026 h -56.99896 c -3.35,-0.01 -6.98037,0.37104 -9.49037,-2.30896 -2.41,-2.58 -2.47038,-6.37997 -2.51038,-9.68995 v -28.00052 c 0.07,-5.12 0.0305,-9.16977 5.11048,-11.85975 h 22.89004 40.99919 c 0.67,-0.0325 1.39349,-0.0713 2.13318,-0.0806 z" />
</svg>
