<?xml version="1.0" encoding="UTF-8" standalone="no"?>
<!DOCTYPE svg PUBLIC "-//W3C//DTD SVG 1.1//EN" "http://www.w3.org/Graphics/SVG/1.1/DTD/svg11.dtd">
<svg width="100%" height="100%" viewBox="0 0 400 400" version="1.1" xmlns="http://www.w3.org/2000/svg" xmlns:xlink="http://www.w3.org/1999/xlink" xml:space="preserve" xmlns:serif="http://www.serif.com/" style="fill-rule:evenodd;clip-rule:evenodd;stroke-linejoin:round;stroke-miterlimit:1.41421;">
    <g transform="matrix(1,0,0,1,19.8177,-66.2528)">
        <path d="M285,112.343L157.343,240L157.343,294L212,294L339,167L285,112.343ZM194,258L194,277L204,277L227,254L198,226L176,248L176,258L194,258ZM287.744,140.256C285.874,138.385 282.837,138.385 280.966,140.256L215.611,205.611C213.74,207.481 213.74,210.519 215.611,212.389C217.481,214.26 220.519,214.26 222.389,212.389L287.744,147.034C289.615,145.163 289.615,142.126 287.744,140.256ZM297.02,100.654L314.444,83.23C321.401,76.273 332.699,76.273 339.657,83.23L368.77,112.343C375.727,119.301 375.727,130.599 368.77,137.556L351.346,154.98L297.02,100.654Z" style="fill:rgb(157,165,180);"/>
    </g>
    <path id="table" d="M265,212.386L265,232.993C265,236.506 267.852,239.358 271.365,239.358L338.635,239.358C342.148,239.358 345,236.506 345,232.993L345,192.724C345,189.211 342.149,186.359 338.635,186.358L291.027,186.358L318.386,159L338.635,159C342.148,159 345,156.148 345,152.635L345,132.386L371,106.386L371,314.707C371,331.978 356.979,345.999 339.707,346L56.293,346C39.022,346 25,331.978 25,314.707L25,84.293C25,67.022 39.021,53.001 56.293,53L282.185,53L229.185,106L164.365,106C160.851,106.001 158,108.853 158,112.365L158,152.635C158,156.148 160.852,159 164.365,159L167.707,159L167.707,186.358L164.365,186.358C160.851,186.359 158,189.211 158,192.724L158,232.993C158,236.506 160.852,239.358 164.365,239.358L238.027,239.358L265,212.386ZM124.635,266.358L57.365,266.358C53.851,266.359 51,269.211 51,272.724L51,312.993C51,316.506 53.852,319.358 57.365,319.358L124.635,319.358C128.148,319.358 131,316.506 131,312.993L131,272.724C131,269.211 128.149,266.359 124.635,266.358ZM231.635,266.358L164.365,266.358C160.851,266.359 158,269.211 158,272.724L158,312.993C158,316.506 160.852,319.358 164.365,319.358L231.635,319.358C235.148,319.358 238,316.506 238,312.993L238,272.724C238,269.211 235.149,266.359 231.635,266.358ZM338.635,266.358L271.365,266.358C267.851,266.359 265,269.211 265,272.724L265,312.993C265,316.506 267.852,319.358 271.365,319.358L338.635,319.358C342.148,319.358 345,316.506 345,312.993L345,272.724C345,269.211 342.149,266.359 338.635,266.358ZM124.635,186.358L57.365,186.358C53.851,186.359 51,189.211 51,192.724L51,232.993C51,236.506 53.852,239.358 57.365,239.358L124.635,239.358C128.148,239.358 131,236.506 131,232.993L131,192.724C131,189.211 128.149,186.359 124.635,186.358ZM124.635,106L57.365,106C53.851,106.001 51,108.853 51,112.365L51,152.635C51,156.148 53.852,159 57.365,159L124.635,159C128.148,159 131,156.148 131,152.635L131,112.365C131,108.853 128.149,106.001 124.635,106Z" style="fill:rgb(157,165,180);"/>
</svg>
