<?xml version="1.0" encoding="UTF-8" standalone="no"?>
<!DOCTYPE svg PUBLIC "-//W3C//DTD SVG 1.1//EN" "http://www.w3.org/Graphics/SVG/1.1/DTD/svg11.dtd">
<svg width="100%" height="100%" viewBox="0 0 400 400" version="1.1" xmlns="http://www.w3.org/2000/svg" xmlns:xlink="http://www.w3.org/1999/xlink" xml:space="preserve" xmlns:serif="http://www.serif.com/" style="fill-rule:evenodd;clip-rule:evenodd;stroke-miterlimit:10;">
    <g transform="matrix(18.6631,0,0,18.6631,-53.9311,-73.414)">
        <path d="M19.6,17.1C19.6,17.1 19.4,17.1 19.1,17.1L19.1,21.5L8.2,21.5L8.2,7.7L19.1,7.7L19.1,17.8C19.5,17.8 20,17.8 20.4,17.8L20.4,7.3C20.4,6.8 20,6.4 19.5,6.4L7.7,6.4C7.2,6.4 6.8,6.8 6.8,7.3L6.8,22C6.8,22.5 7.2,22.9 7.7,22.9L19.5,22.9C20,22.9 20.4,22.5 20.4,22L20.4,17C20,17.1 19.7,17.1 19.6,17.1Z" style="fill:rgb(157,165,180);fill-rule:nonzero;"/>
    </g>
    <g transform="matrix(18.6631,0,0,18.6631,-53.9311,-73.414)">
        <path d="M8.6,16.5C9.5,15.6 10.3,14.7 11.2,13.9C11.3,13.8 11.4,13.8 11.6,13.9C11.7,14 11.7,14 11.8,14.1C11.9,14.2 11.9,14.3 11.8,14.5C11.1,15.2 10.4,15.9 9.8,16.5C9.7,16.6 9.7,16.6 9.8,16.7C10.5,17.4 11.2,18.1 11.8,18.7C12,18.9 12,19 11.8,19.1C11.7,19.2 11.6,19.2 11.6,19.3C11.5,19.4 11.4,19.4 11.4,19.3L11.3,19.2C10.5,18.4 9.7,17.6 8.9,16.8L8.8,16.7C8.6,16.6 8.6,16.5 8.6,16.5Z" style="fill:rgb(157,165,180);fill-rule:nonzero;stroke:rgb(157,165,180);stroke-width:0.5px;"/>
    </g>
    <g transform="matrix(18.6631,0,0,18.6631,-53.9311,-73.414)">
        <path d="M18.7,16.6C18.7,16.7 18.6,16.7 18.6,16.8C17.8,17.6 16.9,18.5 16.1,19.3C15.9,19.5 15.9,19.5 15.7,19.3C15.6,19.2 15.6,19.2 15.5,19.1C15.4,19 15.4,18.9 15.5,18.8L15.6,18.7C16.3,18 16.9,17.4 17.6,16.7L17.7,16.6L17.6,16.5C16.9,15.8 16.3,15.2 15.6,14.5L15.5,14.4C15.4,14.3 15.4,14.2 15.5,14.1C15.6,14 15.6,14 15.7,13.9C15.8,13.8 15.9,13.8 16,13.9L18.7,16.6C18.7,16.5 18.7,16.5 18.7,16.6Z" style="fill:rgb(157,165,180);fill-rule:nonzero;stroke:rgb(157,165,180);stroke-width:0.5px;"/>
    </g>
    <g transform="matrix(18.6631,0,0,18.6631,-53.9311,-73.414)">
        <path d="M12.2,20.1C12.2,20 12.3,19.8 12.3,19.6C12.6,18.7 12.8,17.7 13.1,16.8C13.5,15.5 13.9,14.1 14.2,12.8C14.2,12.6 14.3,12.6 14.5,12.6C14.6,12.6 14.7,12.6 14.7,12.7C14.9,12.8 14.9,12.8 14.9,13C14.8,13.5 14.6,13.9 14.5,14.4C14.2,15.5 13.9,16.5 13.6,17.6C13.3,18.5 13.1,19.3 12.8,20.2C12.7,20.4 12.7,20.4 12.5,20.4C12.4,20.4 12.3,20.4 12.3,20.3C12.3,20.3 12.2,20.2 12.2,20.1Z" style="fill:rgb(157,165,180);fill-rule:nonzero;stroke:rgb(157,165,180);stroke-width:0.5px;"/>
    </g>
</svg>
