<?xml version="1.0" encoding="UTF-8" standalone="no"?>
<!DOCTYPE svg PUBLIC "-//W3C//DTD SVG 1.1//EN" "http://www.w3.org/Graphics/SVG/1.1/DTD/svg11.dtd">
<svg width="100%" height="100%" viewBox="0 0 400 400" version="1.1" xmlns="http://www.w3.org/2000/svg" xmlns:xlink="http://www.w3.org/1999/xlink" xml:space="preserve" xmlns:serif="http://www.serif.com/" style="fill-rule:evenodd;clip-rule:evenodd;stroke-linejoin:round;stroke-miterlimit:1.41421;">
    <g>
        <g transform="matrix(1.09802,0,0,1.09802,-31.7665,-25.8846)">
            <path d="M359,97.294C359,93.82 356.18,91 352.706,91L149.294,91C145.82,91 143,93.82 143,97.294L143,129.44C143,132.914 145.82,135.735 149.294,135.735L352.706,135.735C356.18,135.735 359,132.914 359,129.44L359,97.294Z" style="fill:rgb(157,165,180);"/>
        </g>
        <g transform="matrix(1.09802,0,0,1.09802,-31.7665,69.2401)">
            <path d="M359,97.294C359,93.82 356.18,91 352.706,91L149.294,91C145.82,91 143,93.82 143,97.294L143,129.44C143,132.914 145.82,135.735 149.294,135.735L352.706,135.735C356.18,135.735 359,132.914 359,129.44L359,97.294Z" style="fill:rgb(157,165,180);"/>
        </g>
        <g transform="matrix(1.09802,0,0,1.09802,-31.7665,164.365)">
            <path d="M359,97.294C359,93.82 356.18,91 352.706,91L149.294,91C145.82,91 143,93.82 143,97.294L143,129.44C143,132.914 145.82,135.735 149.294,135.735L352.706,135.735C356.18,135.735 359,132.914 359,129.44L359,97.294Z" style="fill:rgb(157,165,180);"/>
        </g>
        <g transform="matrix(1,0,0,1,-7,0)">
            <circle cx="84" cy="98.595" r="28.405" style="fill:rgb(157,165,180);"/>
        </g>
        <g transform="matrix(1,0,0,1,-7,95.1247)">
            <circle cx="84" cy="98.595" r="28.405" style="fill:rgb(157,165,180);"/>
        </g>
        <g transform="matrix(1,0,0,1,-7,190.249)">
            <circle cx="84" cy="98.595" r="28.405" style="fill:rgb(157,165,180);"/>
        </g>
    </g>
</svg>
