<?xml version="1.0" encoding="UTF-8" standalone="no"?>
<!DOCTYPE svg PUBLIC "-//W3C//DTD SVG 1.1//EN" "http://www.w3.org/Graphics/SVG/1.1/DTD/svg11.dtd">
<svg width="100%" height="100%" viewBox="0 0 400 400" version="1.1" xmlns="http://www.w3.org/2000/svg" xmlns:xlink="http://www.w3.org/1999/xlink" xml:space="preserve" xmlns:serif="http://www.serif.com/" style="fill-rule:evenodd;clip-rule:evenodd;stroke-linejoin:round;stroke-miterlimit:1.41421;">
    <g>
        <path d="M55.257,207.881C73.563,177.249 132.273,118.407 200,118.407C267.727,118.407 323.53,180.576 344.517,207.881C333.14,238.017 279.84,303.489 200,303.489C120.16,303.489 69.026,228.891 55.257,207.881ZM250.179,146.767C260.735,158.897 267.129,174.742 267.129,192.069C267.129,230.185 236.183,261.132 198.066,261.132C159.949,261.132 129.003,230.185 129.003,192.069C129.003,175.543 134.819,160.366 144.515,148.474C111.515,164.625 85.904,191.274 75.492,207.837C87.335,225.014 131.314,286.005 199.984,286.005C268.654,286.005 314.496,232.475 324.281,207.837C311.774,192.368 284.89,163.214 250.179,146.767ZM165.878,200C165.741,198.616 165.671,197.213 165.671,195.794C165.671,172.486 184.58,153.56 207.881,153.532L207.881,136.598C175.234,136.626 148.737,163.14 148.737,195.794C148.737,197.208 148.787,198.611 148.885,200L165.878,200Z" style="fill:rgb(157,165,180);"/>
    </g>
</svg>
