<?xml version="1.0" encoding="UTF-8" standalone="no"?>
<!DOCTYPE svg PUBLIC "-//W3C//DTD SVG 1.1//EN" "http://www.w3.org/Graphics/SVG/1.1/DTD/svg11.dtd">
<svg width="100%" height="100%" viewBox="0 0 400 400" version="1.1" xmlns="http://www.w3.org/2000/svg" xmlns:xlink="http://www.w3.org/1999/xlink" xml:space="preserve" xmlns:serif="http://www.serif.com/" style="fill-rule:evenodd;clip-rule:evenodd;stroke-linejoin:round;stroke-miterlimit:1.41421;">
    <g>
        <path d="M194,245C194,245 192.658,276.913 165,303C137.342,329.087 100.271,325 94.5,325C88.729,325 85,317.884 85,315C85,312.116 84.968,295.09 85,292C85.032,288.91 86.635,281.04 94.5,281C102.365,280.96 108.263,281.474 113,281C140.275,278.271 150.681,252.976 151,234C151.205,221.82 140.902,216.762 135.266,216.683L96.5,216.683C78.563,216.683 64,202.12 64,184.183L64,117.5C64,99.563 78.562,85 96.5,85L161.5,85C179.438,85 194,99.563 194,117.5L194,245Z" style="fill:rgb(157,165,180);"/>
        <g transform="matrix(1,0,0,1,152,2.84217e-14)">
            <path d="M194,245C194,245 192.658,276.913 165,303C137.342,329.087 100.271,325 94.5,325C88.729,325 85,317.884 85,315C85,312.116 84.968,295.09 85,292C85.032,288.91 86.635,281.04 94.5,281C102.365,280.96 108.263,281.474 113,281C140.275,278.271 150.681,252.976 151,234C151.205,221.82 140.902,216.762 135.266,216.683L96.5,216.683C78.563,216.683 64,202.12 64,184.183L64,117.5C64,99.563 78.562,85 96.5,85L161.5,85C179.438,85 194,99.563 194,117.5L194,245Z" style="fill:rgb(157,165,180);"/>
        </g>
    </g>
</svg>
