<?xml version="1.0" encoding="UTF-8" standalone="no"?>
<!DOCTYPE svg PUBLIC "-//W3C//DTD SVG 1.1//EN" "http://www.w3.org/Graphics/SVG/1.1/DTD/svg11.dtd">
<svg width="100%" height="100%" viewBox="0 0 400 400" version="1.1" xmlns="http://www.w3.org/2000/svg" xmlns:xlink="http://www.w3.org/1999/xlink" xml:space="preserve" xmlns:serif="http://www.serif.com/" style="fill-rule:evenodd;clip-rule:evenodd;stroke-linejoin:round;stroke-miterlimit:1.41421;">
    <g transform="matrix(1.04497,0,0,1.04497,-13.6645,-4.80138)">
        <path d="M259.898,67.369L343.703,151.173C343.703,151.173 343.703,269.066 343.703,320.155C343.703,326.295 341.263,332.184 336.922,336.526C332.58,340.868 326.691,343.307 320.551,343.307C267.065,343.307 135.633,343.307 85.06,343.307C79.68,343.307 74.519,341.169 70.715,337.365C66.91,333.56 64.773,328.4 64.773,323.019C64.773,271.778 64.773,137.63 64.773,87.049C64.773,76.18 73.584,67.369 84.453,67.369L259.898,67.369ZM112.357,88.17L89.406,88.17L89.406,316.42L116.083,316.42L116.083,229.365L291.436,229.365L291.436,316.42L317.035,316.42L317.035,155.265L249.94,88.17L247.751,88.17L247.751,178.424L112.357,178.424L112.357,88.17ZM133.56,247.767L133.56,316.42L274.537,316.42L274.537,247.767L133.56,247.767ZM229.929,88.17L176.905,88.17L176.905,159.415L229.929,159.415L229.929,88.17Z" style="fill:rgb(157,165,180);"/>
    </g>
</svg>
