<?xml version="1.0" encoding="UTF-8" standalone="no"?>
<!DOCTYPE svg PUBLIC "-//W3C//DTD SVG 1.1//EN" "http://www.w3.org/Graphics/SVG/1.1/DTD/svg11.dtd">
<svg width="100%" height="100%" viewBox="0 0 400 400" version="1.1" xmlns="http://www.w3.org/2000/svg" xmlns:xlink="http://www.w3.org/1999/xlink" xml:space="preserve" xmlns:serif="http://www.serif.com/" style="fill-rule:evenodd;clip-rule:evenodd;stroke-linejoin:round;stroke-miterlimit:1.41421;">
    <path d="M274,128C277.171,119.121 268,60 268,60C268,60 216.794,45.89 192,47C167.206,48.11 98.937,60.62 96,130C94.83,157.648 116,186 116,186L261,186C261,186 235.128,170.95 220,166C204.872,161.05 139.192,146.257 141,108C142.808,69.743 183.42,68.969 189,69C240.387,69.287 252,128 252,128C252,128 268.607,128.959 274,128Z" style="fill:rgb(157,165,180);"/>
    <path d="M216,235.626C216,235.626 259.012,247.242 259,285C258.988,322.758 201.391,334.254 176.664,326C153.906,318.403 122.148,279.928 123,265C114.914,264.472 103,265 103,265L103,326C103,326 100.365,330.271 111,334C121.635,337.729 158.511,353.094 200,349C241.489,344.906 278.619,321.178 289,299C299.381,276.822 296,235.626 296,235.626L216,235.626Z" style="fill:rgb(157,165,180);"/>
    <path d="M372.735,204.735C372.735,201.38 370.011,198.656 366.656,198.656L26.671,198.656C23.316,198.656 20.593,201.38 20.593,204.735L20.593,216.891C20.593,220.246 23.316,222.969 26.671,222.969L366.656,222.969C370.011,222.969 372.735,220.246 372.735,216.891L372.735,204.735Z" style="fill:rgb(157,165,180);"/>
</svg>
