<?xml version="1.0" encoding="UTF-8" standalone="no" ?>
<!DOCTYPE svg PUBLIC "-//W3C//DTD SVG 1.1//EN" "http://www.w3.org/Graphics/SVG/1.1/DTD/svg11.dtd">
<svg xmlns="http://www.w3.org/2000/svg" xmlns:xlink="http://www.w3.org/1999/xlink" version="1.1" width="1080" height="1080" viewBox="0 0 1080 1080" xml:space="preserve">
<desc>Created with Fabric.js 5.2.4</desc>
<defs>
</defs>
<rect x="0" y="0" width="100%" height="100%" fill="transparent"></rect>
<g transform="matrix(1 0 0 1 540 540)" id="3305ee01-af60-482c-9669-d22d5b237e3a"  >
<rect style="stroke: none; stroke-width: 1; stroke-dasharray: none; stroke-linecap: butt; stroke-dashoffset: 0; stroke-linejoin: miter; stroke-miterlimit: 4; fill: rgb(255,255,255); fill-rule: nonzero; opacity: 1; visibility: hidden;" vector-effect="non-scaling-stroke"  x="-540" y="-540" rx="0" ry="0" width="1080" height="1080" />
</g>
<g transform="matrix(1 0 0 1 540 540)" id="5340d3b2-093b-4d4d-9429-9258da40e3e8"  >
</g>
<g transform="matrix(32.48 0 0 32.48 538.8 582.12)" id="7536e347-6049-46c4-a420-bb08557fe649"  >
<path style="stroke: rgb(157,165,180); stroke-width: 0; stroke-dasharray: none; stroke-linecap: butt; stroke-dashoffset: 0; stroke-linejoin: miter; stroke-miterlimit: 4; fill: rgb(157,165,180); fill-rule: nonzero; opacity: 1;" vector-effect="non-scaling-stroke"  transform=" translate(-16.26, -16.26)" d="M 22.662 1.194 L 15.379999999999999 12.934000000000001 L 23.142 25.44 L 17.744999999999997 25.44 L 14.263999999999998 19.614 C 13.731999999999998 18.716 13.221999999999998 17.802 12.735999999999997 16.879 L 12.239999999999997 15.920000000000002 L 11.723999999999997 14.979000000000001 L 11.653999999999996 14.979000000000001 L 11.137999999999996 15.938 C 10.521999999999997 17.101 9.823999999999996 18.325 9.039999999999996 19.616 L 5.541999999999995 25.442 L 0 25.442 L 7.958 12.936 L 0.569 1.195 L 6.056 1.195 L 9.286999999999999 6.595000000000001 C 9.797999999999998 7.447000000000001 10.277 8.288 10.725 9.116 L 11.17 9.968 L 11.614 10.822 L 11.683000000000002 10.822 C 11.884000000000002 10.443 12.032000000000002 10.159999999999998 12.127000000000002 9.968 L 12.570000000000002 9.134 C 12.949000000000002 8.4 13.424000000000001 7.5600000000000005 13.992000000000003 6.613 L 17.224000000000004 1.1950000000000003 L 22.662 1.194 L 22.662 1.194 z M 32.52 29.571 L 32.52 31.325000000000003 L 23.700000000000003 31.325000000000003 L 23.700000000000003 28.948000000000004 C 23.700000000000003 27.719000000000005 23.922000000000004 26.899000000000004 24.362000000000002 26.493000000000002 C 24.803 26.091 25.854000000000003 25.739 27.512 25.442000000000004 C 28.885 25.198000000000004 29.698 24.971000000000004 29.951 24.772000000000002 C 30.205000000000002 24.569000000000003 30.330000000000002 24.043000000000003 30.330000000000002 23.204 C 30.330000000000002 22.393 30.205000000000002 21.884 29.951 21.667 C 29.697 21.448 29.096 21.341 28.141000000000002 21.341 C 27.162000000000003 21.341 26.541 21.450000000000003 26.287000000000003 21.671 C 26.031000000000002 21.89 25.902 22.425 25.902 23.275 L 25.902 23.769 L 23.73 23.769 L 23.73 23.282999999999998 C 23.73 21.817999999999998 24.033 20.831999999999997 24.635 20.325999999999997 C 25.239 19.817999999999998 26.409000000000002 19.563999999999997 28.150000000000002 19.563999999999997 C 29.846000000000004 19.563999999999997 31.002000000000002 19.821999999999996 31.607000000000003 20.333999999999996 C 32.213 20.847999999999995 32.518 21.821999999999996 32.518 23.257999999999996 C 32.518 24.612999999999996 32.287 25.522999999999996 31.826 25.981999999999996 C 31.365000000000002 26.437999999999995 30.303 26.824999999999996 28.638 27.130999999999997 C 27.265 27.380999999999997 26.468000000000004 27.591999999999995 26.242 27.767999999999997 C 26.019000000000002 27.943999999999996 25.91 28.438 25.91 29.257999999999996 L 25.91 29.573999999999995 L 32.52 29.571 L 32.52 29.571 z" stroke-linecap="round" />
</g>
<g transform="matrix(NaN NaN NaN NaN 0 0)"  >
<g style=""   >
</g>
</g>
<g transform="matrix(NaN NaN NaN NaN 0 0)"  >
<g style=""   >
</g>
</g>
</svg>