<?xml version="1.0" encoding="UTF-8" standalone="no" ?>
<!DOCTYPE svg PUBLIC "-//W3C//DTD SVG 1.1//EN" "http://www.w3.org/Graphics/SVG/1.1/DTD/svg11.dtd">
<svg xmlns="http://www.w3.org/2000/svg" xmlns:xlink="http://www.w3.org/1999/xlink" version="1.1" width="1080" height="1080" viewBox="0 0 1080 1080" xml:space="preserve">
<desc>Created with Fabric.js 5.2.4</desc>
<defs>
</defs>
<g transform="matrix(1 0 0 1 540 540)" id="006c7f57-00f2-450c-ad49-fbb21eb5444e"  >
<rect style="stroke: none; stroke-width: 1; stroke-dasharray: none; stroke-linecap: butt; stroke-dashoffset: 0; stroke-linejoin: miter; stroke-miterlimit: 4; fill: rgb(255,255,255); fill-rule: nonzero; opacity: 1; visibility: hidden;" vector-effect="non-scaling-stroke"  x="-540" y="-540" rx="0" ry="0" width="1080" height="1080" />
</g>
<g transform="matrix(1 0 0 1 540 540)" id="b7bc03a1-e9d5-4ed6-a53c-2adb17cfbc48"  >
</g>
<g transform="matrix(33.04 0 0 33.04 536.98 553.26)" id="65796188-926d-4564-a928-14edd266f1b5"  >
<path style="stroke: rgb(157,165,180); stroke-width: 0; stroke-dasharray: none; stroke-linecap: butt; stroke-dashoffset: 0; stroke-linejoin: miter; stroke-miterlimit: 4; fill: rgb(157,165,180); fill-rule: nonzero; opacity: 1;" vector-effect="non-scaling-stroke"  transform=" translate(-15.89, -15.89)" d="M 15.383 18.945 L 23.144 31.451 L 17.746 31.451 L 14.265999999999998 25.626 C 13.732999999999999 24.726000000000003 13.224999999999998 23.814 12.738999999999999 22.89 L 12.241 21.931 L 11.725999999999999 20.990000000000002 L 11.655999999999999 20.990000000000002 L 11.140999999999998 21.949 C 10.523999999999997 23.111 9.825999999999999 24.338 9.041999999999998 25.629 L 5.543999999999998 31.455000000000002 L 0 31.455000000000002 L 7.959 18.947000000000003 L 0.57 7.206 L 6.059 7.206 L 9.289 12.605 C 9.801 13.459 10.278 14.298 10.727 15.126000000000001 L 11.172 15.978000000000002 L 11.614 16.833000000000002 L 11.684000000000001 16.833000000000002 C 11.885000000000002 16.454 12.034 16.17 12.129000000000001 15.978000000000002 L 12.571000000000002 15.144000000000002 C 12.950000000000001 14.411000000000001 13.425 13.570000000000002 13.993000000000002 12.623000000000001 L 17.224000000000004 7.205000000000001 L 22.660000000000004 7.205000000000001 L 15.383 18.945 z M 25.164 10.014 C 25.164 9.193999999999999 25.275000000000002 8.697999999999999 25.498 8.524 C 25.721 8.347999999999999 26.518 8.136999999999999 27.891000000000002 7.886999999999999 C 29.555000000000003 7.5779999999999985 30.62 7.193999999999999 31.080000000000002 6.736999999999998 C 31.541 6.277999999999999 31.769000000000002 5.370999999999999 31.769000000000002 4.0139999999999985 C 31.769000000000002 2.5779999999999985 31.466 1.6039999999999983 30.861 1.0899999999999985 C 30.254 0.5779999999999985 29.099 0.3189999999999985 27.404 0.3189999999999985 C 25.666 0.3189999999999985 24.494 0.5739999999999985 23.887999999999998 1.0819999999999985 C 23.284 1.5879999999999985 22.982 2.5739999999999985 22.982 4.038999999999998 L 22.982 4.523999999999998 L 25.156 4.523999999999998 L 25.156 4.03 C 25.156 3.18 25.282999999999998 2.6450000000000005 25.538999999999998 2.426 C 25.796999999999997 2.2070000000000003 26.413999999999998 2.096 27.392999999999997 2.096 C 28.345999999999997 2.096 28.949999999999996 2.205 29.203999999999997 2.422 C 29.458 2.6390000000000002 29.584999999999997 3.1510000000000002 29.584999999999997 3.9610000000000003 C 29.584999999999997 4.803 29.458 5.3260000000000005 29.203999999999997 5.5280000000000005 C 28.949999999999996 5.729 28.137999999999998 5.955 26.764999999999997 6.199000000000001 C 25.106999999999996 6.496 24.055999999999997 6.845000000000001 23.615 7.250000000000001 C 23.176 7.655000000000001 22.955 8.475000000000001 22.955 9.705000000000002 L 22.955 12.082 L 31.775 12.082 L 31.775 10.328000000000001 L 25.168 10.328000000000001 L 25.164 10.014 L 25.164 10.014 z" stroke-linecap="round" />
</g>
<g transform="matrix(NaN NaN NaN NaN 0 0)"  >
<g style=""   >
</g>
</g>
<g transform="matrix(NaN NaN NaN NaN 0 0)"  >
<g style=""   >
</g>
</g>
</svg>