<?xml version="1.0" encoding="UTF-8" standalone="no"?>
<!DOCTYPE svg PUBLIC "-//W3C//DTD SVG 1.1//EN" "http://www.w3.org/Graphics/SVG/1.1/DTD/svg11.dtd">
<svg width="100%" height="100%" viewBox="0 0 400 400" version="1.1" xmlns="http://www.w3.org/2000/svg" xmlns:xlink="http://www.w3.org/1999/xlink" xml:space="preserve" xmlns:serif="http://www.serif.com/" style="fill-rule:evenodd;clip-rule:evenodd;stroke-linejoin:round;stroke-miterlimit:1.41421;">
    <path id="table" d="M339.707,53C356.979,53.001 371,67.022 371,84.293L371,314.707C371,331.978 356.978,346 339.707,346L56.293,346C39.022,346 25,331.978 25,314.707L25,84.293C25,67.022 39.021,53.001 56.293,53L339.707,53ZM124.635,319.358C128.148,319.358 131,316.506 131,312.993L131,272.724C131,269.211 128.148,266.359 124.635,266.358L57.365,266.358C53.852,266.359 51,269.211 51,272.724L51,312.993C51,316.506 53.852,319.358 57.365,319.358L124.635,319.358ZM231.635,319.358C235.148,319.358 238,316.506 238,312.993L238,272.724C238,269.211 235.148,266.359 231.635,266.358L164.365,266.358C160.852,266.359 158,269.211 158,272.724L158,312.993C158,316.506 160.852,319.358 164.365,319.358L231.635,319.358ZM338.635,319.358C342.148,319.358 345,316.506 345,312.993L345,272.724C345,269.211 342.148,266.359 338.635,266.358L271.365,266.358C267.852,266.359 265,269.211 265,272.724L265,312.993C265,316.506 267.852,319.358 271.365,319.358L338.635,319.358ZM124.635,239.358C128.148,239.358 131,236.506 131,232.993L131,192.724C131,189.211 128.148,186.359 124.635,186.358L57.365,186.358C53.852,186.359 51,189.211 51,192.724L51,232.993C51,236.506 53.852,239.358 57.365,239.358L124.635,239.358ZM231.635,239.358C235.148,239.358 238,236.506 238,232.993L238,192.724C238,189.211 235.148,186.359 231.635,186.358L164.365,186.358C160.852,186.359 158,189.211 158,192.724L158,232.993C158,236.506 160.852,239.358 164.365,239.358L231.635,239.358ZM338.635,239.358C342.148,239.358 345,236.506 345,232.993L345,192.724C345,189.211 342.148,186.359 338.635,186.358L271.365,186.358C267.852,186.359 265,189.211 265,192.724L265,232.993C265,236.506 267.852,239.358 271.365,239.358L338.635,239.358ZM124.635,159C128.148,159 131,156.148 131,152.635L131,112.365C131,108.852 128.148,106 124.635,106L57.365,106C53.852,106 51,108.852 51,112.365L51,152.635C51,156.148 53.852,159 57.365,159L124.635,159ZM231.635,159C235.148,159 238,156.148 238,152.635L238,112.365C238,108.852 235.148,106 231.635,106L164.365,106C160.852,106 158,108.852 158,112.365L158,152.635C158,156.148 160.852,159 164.365,159L231.635,159ZM338.635,159C342.148,159 345,156.148 345,152.635L345,112.365C345,108.852 342.148,106 338.635,106L271.365,106C267.852,106 265,108.852 265,112.365L265,152.635C265,156.148 267.852,159 271.365,159L338.635,159Z" style="fill:rgb(157,165,180);"/>
</svg>
