<?xml version="1.0" encoding="UTF-8" standalone="no"?>
<!DOCTYPE svg PUBLIC "-//W3C//DTD SVG 1.1//EN" "http://www.w3.org/Graphics/SVG/1.1/DTD/svg11.dtd">
<svg width="100%" height="100%" viewBox="0 0 400 400" version="1.1" xmlns="http://www.w3.org/2000/svg" xmlns:xlink="http://www.w3.org/1999/xlink" xml:space="preserve" xmlns:serif="http://www.serif.com/" style="fill-rule:evenodd;clip-rule:evenodd;stroke-linejoin:round;stroke-miterlimit:1.41421;">
    <g transform="matrix(1.04864,0,0,1.04864,-16.5747,8.57653)">
        <path d="M111.034,92.738C135.412,68.8 168.82,54.028 205.651,54.028C280.204,54.028 340.732,114.556 340.732,189.109C340.732,263.663 280.204,324.191 205.651,324.191C162.21,324.191 123.531,303.64 98.814,271.74L131.237,239.317C147.44,264.713 175.866,281.568 208.197,281.568C258.546,281.568 299.422,240.692 299.422,190.344C299.422,139.995 258.546,99.119 208.197,99.119C183.136,99.119 160.421,109.247 143.926,125.63L171.296,152.999C173.691,155.395 174.408,158.997 173.111,162.126C171.815,165.256 168.761,167.296 165.374,167.296C132.802,167.296 72.325,167.296 72.325,167.296C72.325,167.296 72.325,101.361 72.325,70.103C72.325,67.41 73.947,64.982 76.435,63.952C78.923,62.921 81.787,63.491 83.692,65.395L111.034,92.738Z" style="fill:rgb(157,165,180);"/>
    </g>
</svg>
