<?xml version="1.0" encoding="UTF-8" standalone="no"?>
<!DOCTYPE svg PUBLIC "-//W3C//DTD SVG 1.1//EN" "http://www.w3.org/Graphics/SVG/1.1/DTD/svg11.dtd">
<svg width="100%" height="100%" viewBox="0 0 400 400" version="1.1" xmlns="http://www.w3.org/2000/svg" xmlns:xlink="http://www.w3.org/1999/xlink" xml:space="preserve" xmlns:serif="http://www.serif.com/" style="fill-rule:evenodd;clip-rule:evenodd;stroke-linejoin:round;stroke-miterlimit:1.41421;">
    <g>
        <g transform="matrix(0.960733,0.277476,-0.279541,0.967883,80.9574,-39.4046)">
            <path d="M188.481,64.323C188.481,60.833 185.627,58 182.111,58L169.37,58C165.854,58 163,60.833 163,64.323L163,331.677C163,335.167 165.854,338 169.37,338L182.111,338C185.627,338 188.481,335.167 188.481,331.677L188.481,64.323Z" style="fill:rgb(157,165,180);"/>
        </g>
        <path d="M11.82,202.5C11.751,200.673 12.414,198.823 13.808,197.429L106.929,104.308C109.587,101.65 113.902,101.65 116.56,104.308L126.192,113.94C128.85,116.598 128.85,120.913 126.192,123.571L47.263,202.5L126.192,281.429C128.85,284.087 128.85,288.402 126.192,291.06L116.56,300.692C113.902,303.35 109.587,303.35 106.929,300.692L13.808,207.571C12.414,206.177 11.751,204.327 11.82,202.5Z" style="fill:rgb(157,165,180);"/>
        <g transform="matrix(-1,0,0,1,390,0)">
            <path d="M11.82,202.5C11.751,200.673 12.414,198.823 13.808,197.429L106.929,104.308C109.587,101.65 113.902,101.65 116.56,104.308L126.192,113.94C128.85,116.598 128.85,120.913 126.192,123.571L47.263,202.5L126.192,281.429C128.85,284.087 128.85,288.402 126.192,291.06L116.56,300.692C113.902,303.35 109.587,303.35 106.929,300.692L13.808,207.571C12.414,206.177 11.751,204.327 11.82,202.5Z" style="fill:rgb(157,165,180);"/>
        </g>
    </g>
</svg>
