<?xml version="1.0" encoding="UTF-8" standalone="no"?>
<!DOCTYPE svg PUBLIC "-//W3C//DTD SVG 1.1//EN" "http://www.w3.org/Graphics/SVG/1.1/DTD/svg11.dtd">
<svg width="100%" height="100%" viewBox="0 0 400 400" version="1.1" xmlns="http://www.w3.org/2000/svg" xmlns:xlink="http://www.w3.org/1999/xlink" xml:space="preserve" xmlns:serif="http://www.serif.com/" style="fill-rule:evenodd;clip-rule:evenodd;stroke-linejoin:round;stroke-miterlimit:1.41421;">
    <g>
        <path d="M319,351L89,351C78.712,351 73,342.776 73,334C73,325.224 73,68.015 73,61C73,53.985 80.331,44.001 89,44L246,44C250.002,44 262.868,46.868 270,54C277.133,61.133 325.275,109.038 329,114C332.725,118.962 337,128.549 337,137C337,145.451 337,322.318 337,334C337,345.682 327.873,351 319,351ZM227,66L95,66L95,329L315,329L315,153C315,153 252.667,153 243,153C233.333,153 227,144.939 227,138L227,66ZM249.004,67C249.003,66.999 249.002,66.999 249,67L249.004,67C249.365,67.306 249,131 249,131L313,131C312.885,128.283 309,124 309,124L259,73C259,73 253.405,67.415 249.004,67Z" style="fill:rgb(157,165,180);"/>
        <g transform="matrix(1.18587,0,0,1.18587,-34.6274,-9.65974)">
            <path d="M149.617,233.798C144.289,233.798 139.489,232.682 135.217,230.45C130.945,228.218 127.597,225.098 125.173,221.09C122.749,217.082 121.537,212.534 121.537,207.446C121.537,202.358 122.749,197.81 125.173,193.802C127.597,189.794 130.945,186.674 135.217,184.442C139.489,182.21 144.289,181.094 149.617,181.094C154.513,181.094 158.881,181.958 162.721,183.686C166.561,185.414 169.729,187.91 172.225,191.174L161.497,200.75C158.377,196.814 154.705,194.846 150.481,194.846C146.929,194.846 144.073,195.986 141.913,198.266C139.753,200.546 138.673,203.606 138.673,207.446C138.673,211.286 139.753,214.346 141.913,216.626C144.073,218.906 146.929,220.046 150.481,220.046C154.705,220.046 158.377,218.078 161.497,214.142L172.225,223.718C169.729,226.982 166.561,229.478 162.721,231.206C158.881,232.934 154.513,233.798 149.617,233.798Z" style="fill:rgb(157,165,180);fill-rule:nonzero;"/>
            <path d="M198.073,233.798C193.897,233.798 189.829,233.33 185.869,232.394C181.909,231.458 178.657,230.198 176.113,228.614L181.585,216.23C183.985,217.622 186.673,218.738 189.649,219.578C192.625,220.418 195.481,220.838 198.217,220.838C200.569,220.838 202.249,220.61 203.257,220.154C204.265,219.698 204.769,219.014 204.769,218.102C204.769,217.046 204.109,216.254 202.789,215.726C201.469,215.198 199.297,214.622 196.273,213.998C192.385,213.182 189.145,212.306 186.553,211.37C183.961,210.434 181.705,208.898 179.785,206.762C177.865,204.626 176.905,201.734 176.905,198.086C176.905,194.918 177.793,192.038 179.569,189.446C181.345,186.854 183.997,184.814 187.525,183.326C191.053,181.838 195.337,181.094 200.377,181.094C203.833,181.094 207.229,181.466 210.565,182.21C213.901,182.954 216.841,184.046 219.385,185.486L214.273,197.798C209.329,195.302 204.649,194.054 200.233,194.054C195.865,194.054 193.681,195.11 193.681,197.222C193.681,198.23 194.329,198.986 195.625,199.49C196.921,199.994 199.057,200.534 202.033,201.11C205.873,201.83 209.113,202.658 211.753,203.594C214.393,204.53 216.685,206.054 218.629,208.166C220.573,210.278 221.545,213.158 221.545,216.806C221.545,219.974 220.657,222.842 218.881,225.41C217.105,227.978 214.453,230.018 210.925,231.53C207.397,233.042 203.113,233.798 198.073,233.798Z" style="fill:rgb(157,165,180);fill-rule:nonzero;"/>
            <path d="M282.601,182.246L261.289,232.646L244.585,232.646L223.273,182.246L241.561,182.246L253.585,211.694L265.897,182.246L282.601,182.246Z" style="fill:rgb(157,165,180);fill-rule:nonzero;"/>
        </g>
    </g>
</svg>
