<?xml version="1.0" encoding="UTF-8" standalone="no"?>
<!DOCTYPE svg PUBLIC "-//W3C//DTD SVG 1.1//EN" "http://www.w3.org/Graphics/SVG/1.1/DTD/svg11.dtd">
<svg width="100%" height="100%" viewBox="0 0 400 400" version="1.1" xmlns="http://www.w3.org/2000/svg" xmlns:xlink="http://www.w3.org/1999/xlink" xml:space="preserve" xmlns:serif="http://www.serif.com/" style="fill-rule:evenodd;clip-rule:evenodd;stroke-linejoin:round;stroke-miterlimit:1.41421;">
    <path d="M228,49C214.697,48.667 158,45 158,45L154,67C154,67 175.338,64.937 192.812,72C189.054,85.339 146.894,296.342 145,303C143.106,309.658 141.313,319.87 136,322C130.687,324.13 101.421,334.347 99,334C96.947,338.466 95,350 95,350C95,350 177.69,340.755 235,350C238.783,338.25 239.269,330.646 239.269,330.646L202.412,324.28C202.412,324.28 202.366,308.5 208,286C213.634,263.5 252,75 252,75L295,63L299,45C299,45 241.303,49.333 228,49Z" style="fill:rgb(157,165,180);"/>
</svg>
