<?xml version="1.0" encoding="UTF-8" standalone="no"?>
<!DOCTYPE svg PUBLIC "-//W3C//DTD SVG 1.1//EN" "http://www.w3.org/Graphics/SVG/1.1/DTD/svg11.dtd">
<svg width="100%" height="100%" viewBox="0 0 400 400" version="1.1" xmlns="http://www.w3.org/2000/svg" xmlns:xlink="http://www.w3.org/1999/xlink" xml:space="preserve" xmlns:serif="http://www.serif.com/" style="fill-rule:evenodd;clip-rule:evenodd;stroke-linejoin:round;stroke-miterlimit:1.41421;">
    <g>
        <path d="M197.183,177.782C220.077,154.888 220.077,117.714 197.183,94.82L163.067,60.704C140.173,37.81 102.999,37.81 80.105,60.704L57.817,82.992C34.923,105.886 34.923,143.06 57.817,165.954L91.933,200.07C114.827,222.964 152.001,222.964 174.895,200.07L197.183,177.782ZM172.637,149.488C179.852,142.273 179.852,130.556 172.637,123.34L134.66,85.363C127.444,78.148 115.727,78.148 108.512,85.363L82.363,111.512C75.148,118.727 75.148,130.444 82.363,137.66L120.34,175.637C127.556,182.852 139.273,182.852 146.488,175.637L172.637,149.488Z" style="fill:rgb(157,165,180);"/>
        <g transform="matrix(1,0,0,1,132,131)">
            <path d="M197.183,177.782C220.077,154.888 220.077,117.714 197.183,94.82L163.067,60.704C140.173,37.81 102.999,37.81 80.105,60.704L57.817,82.992C34.923,105.886 34.923,143.06 57.817,165.954L91.933,200.07C114.827,222.964 152.001,222.964 174.895,200.07L197.183,177.782ZM172.637,149.488C179.852,142.273 179.852,130.556 172.637,123.34L134.66,85.363C127.444,78.148 115.727,78.148 108.512,85.363L82.363,111.512C75.148,118.727 75.148,130.444 82.363,137.66L120.34,175.637C127.556,182.852 139.273,182.852 146.488,175.637L172.637,149.488Z" style="fill:rgb(157,165,180);"/>
        </g>
        <g transform="matrix(0.718761,0.718761,-0.803985,0.803985,301.812,-90.603)">
            <path d="M200,245.693C200,237.032 192.134,230 182.446,230L65.554,230C55.866,230 48,237.032 48,245.693C48,254.355 55.866,261.387 65.554,261.387L182.446,261.387C192.134,261.387 200,254.355 200,245.693Z" style="fill:rgb(157,165,180);"/>
        </g>
    </g>
</svg>
