<?xml version="1.0" encoding="UTF-8" standalone="no"?>
<!DOCTYPE svg PUBLIC "-//W3C//DTD SVG 1.1//EN" "http://www.w3.org/Graphics/SVG/1.1/DTD/svg11.dtd">
<svg width="100%" height="100%" viewBox="0 0 400 400" version="1.1" xmlns="http://www.w3.org/2000/svg" xmlns:xlink="http://www.w3.org/1999/xlink" xml:space="preserve" xmlns:serif="http://www.serif.com/" style="fill-rule:evenodd;clip-rule:evenodd;stroke-linejoin:round;stroke-miterlimit:1.41421;">
    <g>
        <g transform="matrix(1.09802,0,0,1.09802,-57.021,58.3307)">
            <path d="M127.056,-8.163L127.056,59.037L104.4,59.037L104.4,8.925L92.88,8.925L92.88,-8.163L127.056,-8.163Z" style="fill:rgb(157,165,180);fill-rule:nonzero;"/>
        </g>
        <g transform="matrix(1.09802,0,0,1.09802,-62.5112,166.632)">
            <path d="M148.944,41.469L148.944,59.037L95.088,59.037L95.088,45.117L119.376,22.653C121.488,20.669 122.896,18.973 123.6,17.565C124.304,16.157 124.656,14.781 124.656,13.437C124.656,11.773 124.096,10.477 122.976,9.549C121.856,8.621 120.24,8.157 118.128,8.157C116.08,8.157 114.16,8.701 112.368,9.789C110.576,10.877 109.2,12.413 108.24,14.397L91.152,5.853C93.712,1.053 97.456,-2.739 102.384,-5.523C107.312,-8.307 113.264,-9.699 120.24,-9.699C125.552,-9.699 130.256,-8.835 134.352,-7.107C138.448,-5.379 141.648,-2.915 143.952,0.285C146.256,3.485 147.408,7.165 147.408,11.325C147.408,15.037 146.624,18.509 145.056,21.741C143.488,24.973 140.432,28.637 135.888,32.733L126.288,41.469L148.944,41.469Z" style="fill:rgb(157,165,180);fill-rule:nonzero;"/>
        </g>
        <g transform="matrix(1.09802,0,0,1.09802,-62.6166,273.248)">
            <path d="M132.912,18.429C138.096,19.709 142.08,22.029 144.864,25.389C147.648,28.749 149.04,32.797 149.04,37.533C149.04,41.565 147.936,45.325 145.728,48.813C143.52,52.301 140.112,55.133 135.504,57.309C130.896,59.485 125.168,60.573 118.32,60.573C113.584,60.573 108.864,60.061 104.16,59.037C99.456,58.013 95.344,56.509 91.824,54.525L99.504,37.821C102.256,39.421 105.216,40.637 108.384,41.469C111.552,42.301 114.608,42.717 117.552,42.717C120.176,42.717 122.288,42.269 123.888,41.373C125.488,40.477 126.288,39.197 126.288,37.533C126.288,34.461 123.632,32.925 118.32,32.925L109.392,32.925L109.392,19.005L119.28,8.925L95.28,8.925L95.28,-8.163L145.392,-8.163L145.392,5.757L132.912,18.429Z" style="fill:rgb(157,165,180);fill-rule:nonzero;"/>
        </g>
        <g transform="matrix(1.09802,0,0,1.09802,-31.7665,-25.8846)">
            <path d="M359,97.294C359,93.82 356.18,91 352.706,91L149.294,91C145.82,91 143,93.82 143,97.294L143,129.44C143,132.914 145.82,135.735 149.294,135.735L352.706,135.735C356.18,135.735 359,132.914 359,129.44L359,97.294Z" style="fill:rgb(157,165,180);"/>
        </g>
        <g transform="matrix(1.09802,0,0,1.09802,-31.7665,69.2401)">
            <path d="M359,97.294C359,93.82 356.18,91 352.706,91L149.294,91C145.82,91 143,93.82 143,97.294L143,129.44C143,132.914 145.82,135.735 149.294,135.735L352.706,135.735C356.18,135.735 359,132.914 359,129.44L359,97.294Z" style="fill:rgb(157,165,180);"/>
        </g>
        <g transform="matrix(1.09802,0,0,1.09802,-31.7665,164.365)">
            <path d="M359,97.294C359,93.82 356.18,91 352.706,91L149.294,91C145.82,91 143,93.82 143,97.294L143,129.44C143,132.914 145.82,135.735 149.294,135.735L352.706,135.735C356.18,135.735 359,132.914 359,129.44L359,97.294Z" style="fill:rgb(157,165,180);"/>
        </g>
    </g>
</svg>
